<?xml version="1.0" standalone="no"?>
<!DOCTYPE svg PUBLIC "-//W3C//DTD SVG 20010904//EN"
 "http://www.w3.org/TR/2001/REC-SVG-20010904/DTD/svg10.dtd">
<svg version="1.0" xmlns="http://www.w3.org/2000/svg"
 width="512.000000pt" height="512.000000pt" viewBox="0 0 512.000000 512.000000"
 preserveAspectRatio="xMidYMid meet">

<g transform="translate(0.000000,512.000000) scale(0.100000,-0.100000)"
fill="#000000" stroke="none">
<path d="M891 4765 c-203 -45 -365 -205 -400 -399 -8 -42 -11 -598 -11 -1820
0 -1491 3 -1771 15 -1829 30 -141 123 -258 252 -320 65 -30 74 -32 188 -32
114 0 123 2 185 31 36 17 339 199 675 404 335 205 634 384 665 398 105 49 270
39 370 -21 19 -12 285 -185 590 -385 305 -201 578 -375 605 -388 221 -102 492
-1 598 223 l32 68 0 1855 0 1855 -37 78 c-70 146 -201 248 -363 282 -101 21
-3265 21 -3364 0z m1963 -1141 c285 -73 457 -367 418 -713 -34 -297 -186 -492
-433 -556 -77 -20 -244 -23 -321 -5 -187 43 -345 190 -407 379 -29 88 -43 219
-35 315 25 301 177 505 427 577 82 23 266 25 351 3z m-1824 -279 l0 -275 315
0 315 0 0 275 0 275 85 0 85 0 0 -630 0 -630 -85 0 -85 0 0 285 0 285 -315 0
-315 0 -2 -287 -3 -288 -80 0 -80 0 -3 633 -2 632 85 0 85 0 0 -275z m3260
205 l0 -70 -185 0 -185 0 0 -565 0 -566 -82 3 -83 3 -3 563 -2 562 -180 0
-180 0 0 70 0 70 450 0 450 0 0 -70z"/>
<path d="M2553 3476 c-95 -31 -198 -117 -241 -202 -48 -97 -57 -142 -56 -294
0 -123 4 -154 22 -204 47 -126 137 -227 240 -267 81 -32 232 -32 315 0 171 67
255 209 264 446 10 253 -65 419 -225 497 -60 30 -75 33 -172 35 -68 2 -120 -2
-147 -11z"/>
</g>
</svg>
